<svg width="190" height="18" viewBox="0 0 190 18" fill="none" xmlns="http://www.w3.org/2000/svg">
<path d="M0.0425415 9L15.0425 17.6603L15.0425 0.339746L0.0425415 9ZM188.085 10.5C188.914 10.5 189.585 9.82843 189.585 9C189.585 8.17157 188.914 7.5 188.085 7.5V10.5ZM8.85704 10.5H14.7334V7.5H8.85704V10.5ZM20.6097 10.5H26.486V7.5L20.6097 7.5V10.5ZM32.3624 10.5H38.2387V7.5L32.3624 7.5V10.5ZM44.115 10.5H49.9913V7.5L44.115 7.5V10.5ZM55.8677 10.5L61.744 10.5V7.5L55.8677 7.5V10.5ZM67.6203 10.5L73.4967 10.5V7.5L67.6203 7.5V10.5ZM79.373 10.5L85.2493 10.5V7.5L79.373 7.5V10.5ZM91.1256 10.5L97.002 10.5V7.5L91.1256 7.5V10.5ZM102.878 10.5L108.755 10.5V7.5L102.878 7.5V10.5ZM114.631 10.5L120.507 10.5V7.5L114.631 7.5V10.5ZM126.384 10.5L132.26 10.5V7.5L126.384 7.5V10.5ZM138.136 10.5L144.013 10.5V7.5L138.136 7.5V10.5ZM149.889 10.5H155.765V7.5L149.889 7.5V10.5ZM161.642 10.5H167.518V7.5L161.642 7.5V10.5ZM173.394 10.5H179.271V7.5L173.394 7.5V10.5ZM185.147 10.5H188.085V7.5H185.147V10.5Z" fill="#232325"/>
</svg>
