<svg width="68" height="68" viewBox="0 0 68 68" fill="none" xmlns="http://www.w3.org/2000/svg">
<rect y="33.9411" width="48" height="48" rx="8" transform="rotate(-45 0 33.9411)" fill="#F8DC71"/>
<path d="M24.725 44.5C24.5306 44.5 24.3264 44.4953 24.1125 44.486C23.8986 44.4759 23.6944 44.4611 23.5 44.4417V37.6167L29.3333 36.45L32.7167 39.8333C34.1944 38.9389 35.5509 37.8792 36.786 36.6542C38.0203 35.4292 39.0458 34.1167 39.8625 32.7167L36.5375 29.3625L37.6167 23.5H44.4417C44.4806 23.6944 44.5 23.8986 44.5 24.1125V24.725C44.5 27.2333 43.9408 29.6783 42.8223 32.0598C41.7047 34.4422 40.2269 36.5569 38.389 38.4042C36.5519 40.2514 34.4426 41.7292 32.061 42.8375C29.6787 43.9458 27.2333 44.5 24.725 44.5Z" fill="#B9940A"/>
</svg>
