<svg width="68" height="68" viewBox="0 0 68 68" fill="none" xmlns="http://www.w3.org/2000/svg">
<rect y="33.9411" width="48" height="48" rx="8" transform="rotate(-45 0 33.9411)" fill="#F8DC71"/>
<path d="M33.9998 34C34.6415 34 35.191 33.7714 35.6483 33.314C36.1049 32.8575 36.3332 32.3084 36.3332 31.6667C36.3332 31.025 36.1049 30.4755 35.6483 30.0182C35.191 29.5617 34.6415 29.3334 33.9998 29.3334C33.3582 29.3334 32.8091 29.5617 32.3525 30.0182C31.8952 30.4755 31.6665 31.025 31.6665 31.6667C31.6665 32.3084 31.8952 32.8575 32.3525 33.314C32.8091 33.7714 33.3582 34 33.9998 34ZM33.9998 45.6667C30.8693 43.0028 28.5313 40.5283 26.9858 38.2432C25.4396 35.9589 24.6665 33.8445 24.6665 31.9C24.6665 28.9834 25.6049 26.6598 27.4817 24.9292C29.3577 23.1987 31.5304 22.3334 33.9998 22.3334C36.4693 22.3334 38.642 23.1987 40.518 24.9292C42.3948 26.6598 43.3332 28.9834 43.3332 31.9C43.3332 33.8445 42.5605 35.9589 41.015 38.2432C39.4688 40.5283 37.1304 43.0028 33.9998 45.6667Z" fill="#B9940A"/>
</svg>
