<svg width="30" height="30" viewBox="0 0 30 30" fill="none" xmlns="http://www.w3.org/2000/svg">
<path d="M30 8.75H27.5V2.5H21.25V0H30V8.75Z" fill="#D0CD38"/>
<path d="M2.13755 19.6251L0.362549 17.8625L12.5 5.72506L17.5 10.7251L27.8625 0.362549L29.6376 2.12505L17.5 14.2625L12.5 9.26254L2.13755 19.6251Z" fill="#D0CD38"/>
<path d="M30 27.5H0V30H30V27.5Z" fill="#D0CD38"/>
<path d="M10 28.75H7.5V25H5V28.75H2.5V22.5H10V28.75Z" fill="#D0CD38"/>
<path d="M18.75 28.75H16.25V20H13.75V28.75H11.25V17.5H18.75V28.75Z" fill="#D0CD38"/>
<path d="M27.5 28.75H25V16.25H22.5V28.75H20V13.75H27.5V28.75Z" fill="#D0CD38"/>
</svg>
