<svg width="30" height="30" viewBox="0 0 30 30" fill="none" xmlns="http://www.w3.org/2000/svg">
<path d="M2.5 25H0V5.725L5.72498 0H20V15H17.5V2.5H6.76249L2.5 6.7625V25Z" fill="#D0CD38"/>
<path d="M8.75 8.75H2.5V6.25H6.25V2.5H8.75V8.75Z" fill="#D0CD38"/>
<path d="M30 27.5H2.5V30H30V27.5Z" fill="#D0CD38"/>
<path d="M12.5 28.75H10V25H7.5V28.75H5V22.5H12.5V28.75Z" fill="#D0CD38"/>
<path d="M21.25 28.75H18.75V20H16.25V28.75H13.75V17.5H21.25V28.75Z" fill="#D0CD38"/>
<path d="M30 28.75H27.5V16.25H25V28.75H22.5V13.75H30V28.75Z" fill="#D0CD38"/>
</svg>
