<svg width="30" height="30" viewBox="0 0 30 30" fill="none" xmlns="http://www.w3.org/2000/svg">
<path d="M25 27.5H22.5V25C22.4991 24.8355 22.5306 24.6724 22.5928 24.5201C22.655 24.3678 22.7467 24.2293 22.8625 24.1125L27.5 19.4875V7.5C27.5 7.16848 27.3683 6.85056 27.1339 6.61613C26.8995 6.38171 26.5815 6.25 26.25 6.25C25.9185 6.25 25.6005 6.38171 25.3661 6.61613C25.1317 6.85056 25 7.16848 25 7.5V13.75H22.5V7.5C22.5 6.50544 22.8951 5.55163 23.5983 4.84837C24.3016 4.1451 25.2555 3.75 26.25 3.75C27.2446 3.75 28.1984 4.1451 28.9017 4.84837C29.6049 5.55163 30 6.50544 30 7.5V20C29.9993 20.1654 29.9658 20.329 29.9014 20.4813C29.8371 20.6337 29.7431 20.7717 29.625 20.8875L25 25.5125V27.5Z" fill="#D0CD38"/>
<path d="M18.75 27.5H16.25V17.6125C16.2491 17.448 16.2806 17.2849 16.3428 17.1326C16.405 16.9803 16.4967 16.8418 16.6125 16.725L19.7375 13.6C20.4529 12.9213 21.4014 12.5428 22.3875 12.5428C23.3736 12.5428 24.3222 12.9213 25.0375 13.6C25.7398 14.3031 26.1342 15.2563 26.1342 16.25C26.1342 17.2438 25.7398 18.1969 25.0375 18.9L23.1625 20.775L21.4 19.0125L23.275 17.1375C23.3922 17.0213 23.4852 16.8831 23.5486 16.7307C23.6121 16.5784 23.6448 16.415 23.6448 16.25C23.6448 16.085 23.6121 15.9216 23.5486 15.7693C23.4852 15.617 23.3922 15.4787 23.275 15.3625C23.1588 15.2454 23.0206 15.1524 22.8683 15.0889C22.7159 15.0254 22.5525 14.9928 22.3875 14.9928C22.2225 14.9928 22.0591 15.0254 21.9068 15.0889C21.7545 15.1524 21.6162 15.2454 21.5 15.3625L18.75 18.125V27.5Z" fill="#D0CD38"/>
<path d="M27.4875 30H24.9875V28.75H18.7375V30H16.2375V26.25H27.4875V30Z" fill="#D0CD38"/>
<path d="M7.38753 27.5H4.88753V25.5125L0.350021 20.875C0.123665 20.6402 -0.00193676 20.3262 2.2584e-05 20V7.5C2.2584e-05 6.50544 0.395089 5.55163 1.09835 4.84837C1.80161 4.1451 2.75546 3.75 3.75002 3.75C4.74458 3.75 5.6984 4.1451 6.40166 4.84837C7.10492 5.55163 7.50002 6.50544 7.50002 7.5V13.75H5.00002V7.5C5.00002 7.16848 4.86831 6.85056 4.63389 6.61613C4.39947 6.38171 4.08154 6.25 3.75002 6.25C3.4185 6.25 3.10054 6.38171 2.86612 6.61613C2.6317 6.85056 2.50002 7.16848 2.50002 7.5V19.4875L7.02502 24.125C7.25137 24.3598 7.37697 24.6738 7.37502 25L7.38753 27.5Z" fill="#D0CD38"/>
<path d="M13.75 27.5H11.25V18.1375L8.40005 15.375C8.28363 15.2559 8.14459 15.1613 7.99111 15.0967C7.83763 15.0322 7.67282 14.9989 7.5063 14.9989C7.33979 14.9989 7.17493 15.0322 7.02145 15.0967C6.86797 15.1613 6.72897 15.2559 6.61256 15.375C6.4954 15.4912 6.40239 15.6295 6.33893 15.7818C6.27547 15.9341 6.2428 16.0975 6.2428 16.2625C6.2428 16.4275 6.27547 16.5909 6.33893 16.7432C6.40239 16.8955 6.4954 17.0338 6.61256 17.15L8.48756 19.025L6.72505 20.7875L4.85005 18.9125C4.1478 18.2094 3.75333 17.2563 3.75333 16.2625C3.75333 15.2688 4.1478 14.3156 4.85005 13.6125C5.56248 12.9281 6.5121 12.5458 7.50005 12.5458C8.48799 12.5458 9.43761 12.9281 10.15 13.6125L13.3625 16.725C13.4844 16.8412 13.5816 16.9808 13.6482 17.1354C13.7147 17.2901 13.7494 17.4566 13.75 17.625V27.5Z" fill="#D0CD38"/>
<path d="M13.7375 30H11.2375V28.75H4.88754V30H2.38754V26.25H13.7375V30Z" fill="#D0CD38"/>
<path d="M16.25 6.25H13.75C13.087 6.25 12.4511 6.51339 11.9823 6.98223C11.5134 7.45107 11.25 8.08696 11.25 8.75V11.25H18.75V8.75C18.75 8.08696 18.4866 7.45107 18.0178 6.98223C17.549 6.51339 16.9131 6.25 16.25 6.25Z" fill="#D0CD38"/>
<path d="M14.9875 5C16.3682 5 17.4875 3.88071 17.4875 2.5C17.4875 1.11929 16.3682 0 14.9875 0C13.6068 0 12.4875 1.11929 12.4875 2.5C12.4875 3.88071 13.6068 5 14.9875 5Z" fill="#D0CD38"/>
</svg>
