<svg width="29" height="30" viewBox="0 0 29 30" fill="none" xmlns="http://www.w3.org/2000/svg">
<path d="M25.0125 30H12.5125C12.1863 30.0019 11.8723 29.8763 11.6375 29.65L6.99997 25.1125H5.01251V22.6125H7.51251C7.83435 22.6137 8.14329 22.7391 8.37501 22.9625L13.0125 27.5H25.0125C25.344 27.5 25.6619 27.3683 25.8964 27.1338C26.1308 26.8994 26.2625 26.5815 26.2625 26.25C26.2625 25.9184 26.1308 25.6005 25.8964 25.3661C25.6619 25.1317 25.344 25 25.0125 25H18.7625V22.5H25.0125C26.0071 22.5 26.9609 22.8951 27.6642 23.5983C28.3674 24.3016 28.7625 25.2554 28.7625 26.25C28.7625 27.2445 28.3674 28.1983 27.6642 28.9016C26.9609 29.6049 26.0071 30 25.0125 30Z" fill="#D0CD38"/>
<path d="M16.2625 26.25C15.7681 26.2512 15.2783 26.1546 14.8214 25.9659C14.3645 25.7771 13.9494 25.4998 13.6 25.15L11.725 23.275L13.5 21.5125L15.375 23.3875C15.4915 23.5032 15.6297 23.5948 15.7817 23.6572C15.9337 23.7195 16.0964 23.7512 16.2607 23.7507C16.4249 23.7501 16.5874 23.7172 16.739 23.6538C16.8905 23.5904 17.028 23.4978 17.1438 23.3812C17.2595 23.2647 17.3511 23.1265 17.4134 22.9745C17.4757 22.8226 17.5075 22.6598 17.5069 22.4956C17.5064 22.3313 17.4734 22.1688 17.41 22.0173C17.3466 21.8657 17.2541 21.7282 17.1375 21.6125L13.1375 17.6125H5.01251V15.1125H13.65C13.8145 15.1115 13.9776 15.143 14.1299 15.2053C14.2822 15.2675 14.4207 15.3591 14.5375 15.475L18.9125 19.85C19.4363 20.3744 19.7929 21.0423 19.9373 21.7693C20.0817 22.4963 20.0075 23.2498 19.724 23.9346C19.4404 24.6194 18.9603 25.2048 18.3442 25.6169C17.7281 26.029 17.0037 26.2493 16.2625 26.25Z" fill="#D0CD38"/>
<path d="M3.75 27.6H0V25.1H1.25V16.35H0V13.85H3.75V27.6Z" fill="#D0CD38"/>
<path d="M21.25 3.75H18.75V7.5H21.25V3.75Z" fill="#D0CD38"/>
<path d="M25 0H22.5V5H25V0Z" fill="#D0CD38"/>
<path d="M22.5125 18.75C21.5236 18.75 20.5569 18.4567 19.7347 17.9073C18.9124 17.3579 18.2715 16.577 17.8931 15.6634C17.5147 14.7498 17.4157 13.7444 17.6086 12.7745C17.8015 11.8046 18.2777 10.9137 18.977 10.2145C19.6763 9.51519 20.5671 9.03901 21.537 8.84608C22.5069 8.65316 23.5123 8.75215 24.4259 9.13058C25.3395 9.50902 26.1205 10.1499 26.6699 10.9721C27.2193 11.7944 27.5125 12.7611 27.5125 13.75C27.5125 15.0761 26.9858 16.3478 26.0481 17.2855C25.1104 18.2232 23.8386 18.75 22.5125 18.75ZM22.5125 11.25C22.0181 11.25 21.5347 11.3966 21.1236 11.6713C20.7125 11.946 20.392 12.3364 20.2028 12.7933C20.0136 13.2501 19.9641 13.7527 20.0605 14.2377C20.157 14.7226 20.3951 15.1681 20.7447 15.5178C21.0944 15.8674 21.5398 16.1055 22.0248 16.202C22.5097 16.2984 23.0124 16.2489 23.4693 16.0597C23.9261 15.8705 24.3165 15.55 24.5912 15.1389C24.8659 14.7278 25.0125 14.2444 25.0125 13.75C25.0125 13.0869 24.7491 12.4511 24.2803 11.9822C23.8114 11.5134 23.1756 11.25 22.5125 11.25Z" fill="#D0CD38"/>
</svg>
