<svg width="512" height="512" viewBox="0 0 512 512" fill="none" xmlns="http://www.w3.org/2000/svg">
<g clip-path="url(#clip0_19_2)">
<rect width="512" height="512" fill="white"/>
<rect width="512" height="512" rx="150" fill="url(#paint0_linear_19_2)"/>
<path d="M171.047 362.1C156.447 362.1 143.247 359.6 131.447 354.6C119.847 349.6 110.647 342.4 103.847 333C97.0469 323.6 93.5469 312.5 93.3469 299.7H138.347C138.947 308.3 141.947 315.1 147.347 320.1C152.947 325.1 160.547 327.6 170.147 327.6C179.947 327.6 187.647 325.3 193.247 320.7C198.847 315.9 201.647 309.7 201.647 302.1C201.647 295.9 199.747 290.8 195.947 286.8C192.147 282.8 187.347 279.7 181.547 277.5C175.947 275.1 168.147 272.5 158.147 269.7C144.547 265.7 133.447 261.8 124.847 258C116.447 254 109.147 248.1 102.947 240.3C96.9469 232.3 93.9469 221.7 93.9469 208.5C93.9469 196.1 97.0469 185.3 103.247 176.1C109.447 166.9 118.147 159.9 129.347 155.1C140.547 150.1 153.347 147.6 167.747 147.6C189.347 147.6 206.847 152.9 220.247 163.5C233.847 173.9 241.347 188.5 242.747 207.3H196.547C196.147 200.1 193.047 194.2 187.247 189.6C181.647 184.8 174.147 182.4 164.747 182.4C156.547 182.4 149.947 184.5 144.947 188.7C140.147 192.9 137.747 199 137.747 207C137.747 212.6 139.547 217.3 143.147 221.1C146.947 224.7 151.547 227.7 156.947 230.1C162.547 232.3 170.347 234.9 180.347 237.9C193.947 241.9 205.047 245.9 213.647 249.9C222.247 253.9 229.647 259.9 235.847 267.9C242.047 275.9 245.147 286.4 245.147 299.4C245.147 310.6 242.247 321 236.447 330.6C230.647 340.2 222.147 347.9 210.947 353.7C199.747 359.3 186.447 362.1 171.047 362.1ZM403.659 150.6V297.6C403.659 318 397.759 333.9 385.959 345.3C374.159 356.5 358.359 362.1 338.559 362.1C318.559 362.1 302.359 356.3 289.959 344.7C277.759 333.1 271.659 316.9 271.659 296.1H313.659C313.859 305.1 315.959 312.1 319.959 317.1C324.159 322.1 330.159 324.6 337.959 324.6C345.559 324.6 351.359 322.2 355.359 317.4C359.359 312.6 361.359 306 361.359 297.6V150.6H403.659Z" fill="url(#paint1_linear_19_2)"/>
</g>
<defs>
<linearGradient id="paint0_linear_19_2" x1="256" y1="0" x2="256" y2="512" gradientUnits="userSpaceOnUse">
<stop stop-color="#F5F5F5"/>
<stop offset="1" stop-color="#FFE0CE"/>
</linearGradient>
<linearGradient id="paint1_linear_19_2" x1="255" y1="30" x2="255" y2="480" gradientUnits="userSpaceOnUse">
<stop stop-color="#FF2424"/>
<stop offset="1" stop-color="#740101"/>
</linearGradient>
<clipPath id="clip0_19_2">
<rect width="512" height="512" fill="white"/>
</clipPath>
</defs>
</svg>
